<svg xmlns="http://www.w3.org/2000/svg" width="24" height="24" viewBox="0 0 24 24">
    <g fill="#FFF">
        <path d="M3.529 20.468c1.1 1.1 2.38 1.963 3.806 2.566 1.478.625 3.047.942 4.663.942s3.185-.317 4.663-.942c1.426-.603 2.707-1.467 3.807-2.566 1.1-1.1 1.963-2.38 2.566-3.807.625-1.478.942-3.047.942-4.663s-.317-3.185-.942-4.663c-.603-1.426-1.467-2.707-2.566-3.806-1.1-1.1-2.38-1.963-3.807-2.567C15.183.337 13.614.02 11.998.02S8.813.337 7.335.962C5.91 1.566 4.628 2.43 3.53 3.53c-1.1 1.1-1.963 2.38-2.567 3.806C.337 8.813.02 10.382.02 11.998s.317 3.185.942 4.663c.604 1.427 1.467 2.707 2.567 3.807zm8.47-18.699c5.649 0 10.228 4.58 10.228 10.23 0 5.649-4.58 10.228-10.229 10.228-5.65 0-10.229-4.58-10.229-10.229 0-5.65 4.58-10.229 10.23-10.229z"/>
        <path d="M7.548 16.449c.17.17.394.256.618.256.224 0 .447-.086.618-.256l3.214-3.214 3.214 3.214c.17.17.395.256.618.256.224 0 .448-.086.619-.256.341-.342.341-.895 0-1.237l-3.215-3.214 3.214-3.214c.342-.341.342-.895 0-1.236-.34-.342-.894-.342-1.236 0l-3.214 3.214-3.214-3.214c-.341-.342-.895-.342-1.236 0-.342.341-.342.895 0 1.236l3.214 3.214-3.214 3.214c-.342.342-.342.895 0 1.237z"/>
    </g>
</svg>
